<svg width="30" height="30" viewBox="0 0 30 30" fill="none" xmlns="http://www.w3.org/2000/svg">
<path d="M4.02396 5.35125C3.93679 5.26409 3.86765 5.16061 3.82048 5.04672C3.7733 4.93283 3.74902 4.81077 3.74902 4.6875C3.74902 4.56423 3.7733 4.44217 3.82048 4.32828C3.86765 4.2144 3.93679 4.11092 4.02396 4.02375C4.11112 3.93659 4.2146 3.86744 4.32849 3.82027C4.44238 3.7731 4.56444 3.74882 4.68771 3.74882C4.81098 3.74882 4.93304 3.7731 5.04693 3.82027C5.16081 3.86744 5.26429 3.93659 5.35146 4.02375L15.0002 13.6744L24.649 4.02375C24.7361 3.93659 24.8396 3.86744 24.9535 3.82027C25.0674 3.7731 25.1894 3.74882 25.3127 3.74882C25.436 3.74882 25.558 3.7731 25.6719 3.82027C25.7858 3.86744 25.8893 3.93659 25.9765 4.02375C26.0636 4.11092 26.1328 4.2144 26.1799 4.32828C26.2271 4.44217 26.2514 4.56423 26.2514 4.6875C26.2514 4.81077 26.2271 4.93283 26.1799 5.04672C26.1328 5.16061 26.0636 5.26409 25.9765 5.35125L16.3258 15L25.9765 24.6488C26.0636 24.7359 26.1328 24.8394 26.1799 24.9533C26.2271 25.0672 26.2514 25.1892 26.2514 25.3125C26.2514 25.4358 26.2271 25.5578 26.1799 25.6717C26.1328 25.7856 26.0636 25.8891 25.9765 25.9763C25.8893 26.0634 25.7858 26.1326 25.6719 26.1797C25.558 26.2269 25.436 26.2512 25.3127 26.2512C25.1894 26.2512 25.0674 26.2269 24.9535 26.1797C24.8396 26.1326 24.7361 26.0634 24.649 25.9763L15.0002 16.3256L5.35146 25.9763C5.26429 26.0634 5.16081 26.1326 5.04693 26.1797C4.93304 26.2269 4.81098 26.2512 4.68771 26.2512C4.56444 26.2512 4.44238 26.2269 4.32849 26.1797C4.2146 26.1326 4.11112 26.0634 4.02396 25.9763C3.93679 25.8891 3.86765 25.7856 3.82048 25.6717C3.7733 25.5578 3.74902 25.4358 3.74902 25.3125C3.74902 25.1892 3.7733 25.0672 3.82048 24.9533C3.86765 24.8394 3.93679 24.7359 4.02396 24.6488L13.6746 15L4.02396 5.35125Z" fill="black"/>
</svg>
